<?xml version="1.0" encoding="UTF-8" standalone="no"?>
<!-- Created with Inkscape (http://www.inkscape.org/) -->

<svg
   xmlns:dc="http://purl.org/dc/elements/1.1/"
   xmlns:cc="http://creativecommons.org/ns#"
   xmlns:rdf="http://www.w3.org/1999/02/22-rdf-syntax-ns#"
   xmlns:svg="http://www.w3.org/2000/svg"
   xmlns="http://www.w3.org/2000/svg"
   xmlns:sodipodi="http://sodipodi.sourceforge.net/DTD/sodipodi-0.dtd"
   xmlns:inkscape="http://www.inkscape.org/namespaces/inkscape"
   id="svg2"
   sodipodi:version="0.32"
   inkscape:version="0.48.2 r9819"
   width="48"
   height="48"
   version="1.0"
   sodipodi:docname="iraicone.svg"
   inkscape:output_extension="org.inkscape.output.svg.inkscape"
   inkscape:export-filename="/home/pierre/workspace/iramuteq/images/iraicone248x248.png"
   inkscape:export-xdpi="465"
   inkscape:export-ydpi="465">
  <metadata
     id="metadata7">
    <rdf:RDF>
      <cc:Work
         rdf:about="">
        <dc:format>image/svg+xml</dc:format>
        <dc:type
           rdf:resource="http://purl.org/dc/dcmitype/StillImage" />
        <dc:title></dc:title>
      </cc:Work>
    </rdf:RDF>
  </metadata>
  <defs
     id="defs5">
    <inkscape:perspective
       sodipodi:type="inkscape:persp3d"
       inkscape:vp_x="0 : 526.18109 : 1"
       inkscape:vp_y="0 : 1000 : 0"
       inkscape:vp_z="744.09448 : 526.18109 : 1"
       inkscape:persp3d-origin="372.04724 : 350.78739 : 1"
       id="perspective9" />
    <filter
       inkscape:collect="always"
       id="filter3404"
       x="-0.13976402"
       width="1.279528"
       y="-0.074074927"
       height="1.1481499">
      <feGaussianBlur
         inkscape:collect="always"
         stdDeviation="0.89969547"
         id="feGaussianBlur3406" />
    </filter>
    <filter
       inkscape:collect="always"
       id="filter3456"
       x="-0.13867436"
       width="1.2773487"
       y="-0.11294743"
       height="1.2258949">
      <feGaussianBlur
         inkscape:collect="always"
         stdDeviation="1.0105823"
         id="feGaussianBlur3458" />
    </filter>
    <filter
       inkscape:collect="always"
       id="filter3512"
       x="-0.10079906"
       width="1.2015981"
       y="-0.15144443"
       height="1.3028889">
      <feGaussianBlur
         inkscape:collect="always"
         stdDeviation="1.2569275"
         id="feGaussianBlur3514" />
    </filter>
  </defs>
  <sodipodi:namedview
     inkscape:window-height="749"
     inkscape:window-width="1272"
     inkscape:pageshadow="2"
     inkscape:pageopacity="0.0"
     guidetolerance="10.0"
     gridtolerance="10.0"
     objecttolerance="10.0"
     borderopacity="1.0"
     bordercolor="#666666"
     pagecolor="#ffffff"
     id="base"
     showgrid="false"
     inkscape:zoom="7.2773075"
     inkscape:cx="53.032887"
     inkscape:cy="23.611433"
     inkscape:window-x="215"
     inkscape:window-y="110"
     inkscape:current-layer="svg2"
     inkscape:window-maximized="0" />
  <path
     inkscape:connector-curvature="0"
     style="fill:none;stroke:#000000;stroke-width:0.40000001;stroke-linecap:butt;stroke-linejoin:miter;stroke-miterlimit:4;stroke-opacity:1;stroke-dasharray:1.20000002,0.40000001;stroke-dashoffset:0"
     d="M 0,23.708502 48.194332,23.51417"
     id="path3194"
     inkscape:export-filename="/home/pierre/workspace/iramuteq/images/iraicone16x16.png"
     inkscape:export-xdpi="29.879032"
     inkscape:export-ydpi="29.879032" />
  <path
     inkscape:connector-curvature="0"
     style="fill:none;stroke:#000000;stroke-width:0.5;stroke-linecap:butt;stroke-linejoin:miter;stroke-miterlimit:4;stroke-opacity:1;stroke-dasharray:1.5,0.5;stroke-dashoffset:0"
     d="M 23.902834,47.902834 C 24,0.19433198 24,0.19433198 24,0.19433198"
     id="path3196"
     inkscape:export-filename="/home/pierre/workspace/iramuteq/images/iraicone16x16.png"
     inkscape:export-xdpi="29.879032"
     inkscape:export-ydpi="29.879032" />
  <path
     sodipodi:type="arc"
     style="opacity:1;fill:#00ff1a;fill-opacity:0.72426468;filter:url(#filter3404)"
     id="path3206"
     sodipodi:cx="37.554657"
     sodipodi:cy="16.712551"
     sodipodi:rx="7.7246962"
     sodipodi:ry="14.574899"
     d="M 45.279353,16.712551 A 7.7246962,14.574899 0 1 1 29.829961,16.712551 A 7.7246962,14.574899 0 1 1 45.279353,16.712551 z"
     inkscape:export-filename="/home/pierre/workspace/iramuteq/images/iraicone16x16.png"
     inkscape:export-xdpi="29.879032"
     inkscape:export-ydpi="29.879032" />
  <path
     sodipodi:type="arc"
     style="opacity:1;fill:#007dff;fill-opacity:0.79044116;filter:url(#filter3512)"
     id="path3204"
     sodipodi:cx="18.947369"
     sodipodi:cy="34.639675"
     sodipodi:rx="14.963563"
     sodipodi:ry="9.9595146"
     d="M 33.910932,34.639675 A 14.963563,9.9595146 0 1 1 3.9838057,34.639675 A 14.963563,9.9595146 0 1 1 33.910932,34.639675 z"
     inkscape:export-filename="/home/pierre/workspace/iramuteq/images/iraicone16x16.png"
     inkscape:export-xdpi="29.879032"
     inkscape:export-ydpi="29.879032" />
  <path
     style="fill:none;stroke:#000000;stroke-width:0.49725074;stroke-linecap:butt;stroke-linejoin:miter;stroke-miterlimit:4;stroke-opacity:1;stroke-dasharray:1.49175227, 0.49725076;stroke-dashoffset:0"
     d="m 24.149085,23.911559 c 22.561826,18.766023 22.561826,18.766023 22.561826,18.766023 l 0.07117,0.163895"
     id="path3775-2"
     inkscape:connector-curvature="0"
     inkscape:export-filename="/home/pierre/workspace/iramuteq/images/iraicone16x16.png"
     inkscape:export-xdpi="29.879032"
     inkscape:export-ydpi="29.879032" />
  <path
     style="fill:#0000ff;fill-opacity:0.99688475"
     id="path2409"
     d="M 38.647041,35.575976 C 38.712916,35.817356 38.794341,36.054461 38.889012,36.285993 C 38.945147,36.477885 39.026017,36.659332 39.130387,36.829408 C 39.381894,37.285806 39.700221,36.719828 37.865791,37.532555 C 37.852649,37.538378 37.752081,37.299847 37.746224,37.285659 C 37.660133,37.104214 37.612846,36.907588 37.525205,36.727085 C 37.416564,36.611347 37.395784,36.410024 37.263835,36.317968 C 37.18956,36.81792 37.246894,36.369854 38.501498,35.676535 C 38.508659,35.672578 38.480359,35.671178 38.477046,35.678659 C 38.471314,35.691602 38.478548,35.707091 38.481873,35.72085 C 38.494986,35.775118 38.5154,35.827358 38.532132,35.880623 C 38.596512,36.080539 38.696791,36.263944 38.801108,36.445157 C 38.821731,36.476903 38.841953,36.508913 38.862977,36.540395 C 38.889573,36.580223 38.957981,36.705086 38.94336,36.65948 C 38.747865,36.049696 37.907559,37.817582 37.65193,37.282238 C 37.550489,37.093321 37.449916,36.903098 37.338373,36.71994 C 37.255529,36.580742 37.19215,36.430815 37.11238,36.290165 C 37.072166,36.300242 37.090554,36.187099 37.04998,36.18555 C 37.037337,36.185067 37.04053,36.229212 37.0518,36.223462 C 37.47168,36.00924 37.87174,35.75694 38.29534,35.550171 C 38.314099,35.541014 38.298588,35.592048 38.304111,35.612179 C 38.311078,35.637572 38.323084,35.661306 38.332571,35.685869 C 38.420519,35.879001 38.521534,36.066379 38.622743,36.252925 C 38.717756,36.415565 38.804017,36.578239 38.875381,36.752649 C 39.165646,37.228825 38.772384,36.983014 37.600708,37.416567 C 37.570353,37.427799 37.580321,37.355113 37.569019,37.324784 C 37.540182,37.247393 37.516122,37.195552 37.48245,37.118454 C 37.379261,36.891155 37.280738,36.662208 37.188114,36.43036 C 37.147882,36.336817 37.103761,36.243224 37.048598,36.157303 C 37.040437,36.144592 37.034463,36.127468 37.020474,36.121769 C 37.013301,36.118846 37.011259,36.148484 37.018117,36.144884 C 37.439528,35.923714 37.854858,35.691148 38.273229,35.46428 C 38.313776,35.667566 38.401389,35.856699 38.48277,36.045983 C 38.577242,36.185254 38.606937,36.448729 38.770512,36.529387 C 38.349487,36.748414 37.947313,37.008301 37.507436,37.186467 C 37.465382,37.203501 37.487556,37.097821 37.474019,37.054514 C 37.454712,36.992742 37.432738,36.931775 37.409008,36.871562 C 37.328775,36.667972 37.229033,36.47194 37.132925,36.275616 C 37.034476,36.160385 36.846741,35.617356 36.73332,35.563352 C 38.256744,34.661274 37.838242,34.581511 38.143741,35.399259 C 38.222048,35.62328 38.307279,35.844226 38.398387,36.06331 C 38.410983,36.097775 38.4223,36.132735 38.436174,36.166706 C 38.445544,36.189647 38.487914,36.278435 38.502949,36.306867 C 38.506948,36.314429 38.524069,36.324811 38.516446,36.328694 C 37.180933,37.009058 37.450759,37.385091 37.141488,36.859942 C 36.979162,36.608367 36.816859,36.357194 36.671192,36.095415 C 36.649023,36.056346 36.62676,36.017331 36.604687,35.978209 C 36.563295,35.904845 36.511125,35.805979 36.514851,35.804027 C 37.821849,35.119118 37.631259,34.710427 37.838098,35.226802 C 37.918212,35.443589 38.033366,35.643795 38.146523,35.84433 C 38.274233,36.069929 38.396029,36.29753 38.530951,36.519096 C 38.642734,36.70694 38.751743,36.903078 38.900469,37.064981 C 38.904337,37.060393 38.917365,37.048388 38.912073,37.051217 C 37.396894,37.861251 37.906119,38.06318 37.466206,37.392313 C 37.444983,37.36147 37.424323,37.330232 37.402536,37.299784 C 37.389127,37.281045 37.299578,37.15991 37.277302,37.135498 C 37.269653,37.127116 37.240109,37.120956 37.249925,37.115263 C 38.522985,36.376942 38.231945,36.028044 38.564176,36.471232 C 38.703145,36.683827 38.839437,36.896573 38.996993,37.0962 C 39.173841,37.284675 39.317447,37.502144 39.498374,37.68644 C 39.932341,38.059108 40.107112,37.589183 38.332745,38.474123 C 38.309394,38.485769 38.30516,38.429822 38.29155,38.40756 C 38.196609,38.252267 38.264067,38.358198 38.156742,38.194116 C 37.980962,37.928804 37.814662,37.65654 37.631144,37.396492 C 37.301735,36.941734 37.005709,37.476852 38.837208,36.653833 C 38.861883,36.642745 38.861442,36.702217 38.874395,36.725966 C 38.933333,36.834033 38.933654,36.830194 39.002692,36.938164 C 39.131676,37.135542 39.290338,37.319593 39.382978,37.538337 C 38.954394,37.780591 38.543194,38.056569 38.097228,38.265098 C 38.058947,38.282998 38.03202,38.211286 37.998316,38.185793 C 37.742915,37.992613 37.52655,37.755756 37.301655,37.527872 C 36.964741,37.161635 36.598453,36.824954 36.24978,36.470248 C 35.773569,36.048853 35.605766,36.486574 37.322736,35.680667 C 37.343901,35.670732 37.322304,35.727905 37.327828,35.750623 C 37.348228,35.834516 37.407004,35.969021 37.437558,36.044112 C 37.579168,36.340176 37.749512,36.62181 37.915385,36.904797 C 38.384683,37.64183 38.432244,37.157045 36.856127,37.941598 C 36.569265,37.639276 36.282469,37.335967 35.972089,37.057541 C 35.746234,36.869639 35.511532,36.688236 35.268384,36.522803 C 34.773428,36.297395 34.305472,36.957272 36.371168,35.823559 C 36.378833,35.819353 36.347136,35.806038 36.34646,35.814755 C 36.343613,35.851506 36.404178,35.959746 36.413522,35.978606 C 36.562313,36.227278 36.755275,36.445147 36.941711,36.66562 C 37.228426,37.023719 37.590979,37.308286 37.960038,37.576111 C 38.227033,37.72838 38.553359,38.029153 38.87029,38.05001 C 38.985418,37.520898 38.887836,38.048082 37.678921,38.705775 C 37.660623,38.71573 37.677441,38.66321 37.669326,38.644025 C 37.650786,38.600195 37.625625,38.559319 37.600005,38.519215 C 37.517144,38.389506 37.430809,38.289154 37.333787,38.16753 C 37.053316,37.839319 36.770525,37.514448 36.471528,37.203224 C 36.070658,36.687377 36.301898,36.939168 37.641874,36.347022 C 37.677825,36.331136 37.692827,36.406904 37.719338,36.435921 C 37.754778,36.474712 37.791573,36.512244 37.827691,36.550405 C 38.023289,36.797777 38.251595,37.013412 38.46895,37.240311 C 38.588629,37.386087 38.745345,37.48108 38.891662,37.594658 C 39.307114,38.096978 37.890277,38.35613 37.670962,38.461576 C 37.669824,38.462124 37.463084,38.329538 37.39468,38.292753 C 37.13069,38.150821 36.877642,37.99021 36.618821,37.83907 C 36.401432,37.715076 36.213821,37.544315 35.994719,37.424224 C 35.840632,37.377553 35.718873,37.26886 35.57355,37.205422 C 35.509854,37.166179 35.445398,37.134488 35.371071,37.123978 C 35.360563,37.122493 35.330186,37.126603 35.339349,37.121248 C 36.582672,36.394567 36.296418,36.034482 36.603121,36.437237 C 36.691041,36.55772 36.824435,36.635675 36.937572,36.730251 C 37.076559,36.86994 37.234323,36.988704 37.374429,37.126855 C 37.511041,37.230126 37.638619,37.344166 37.775177,37.447339 C 37.904264,37.577786 38.063769,37.669023 38.2111,37.776217 C 38.362734,37.872659 38.511199,37.97764 38.644284,38.098837 C 38.980805,38.627819 38.022011,38.620634 37.405212,38.919831 C 37.375067,38.934454 37.218436,38.808157 37.199544,38.795147 C 37.01213,38.644807 36.816025,38.506366 36.630489,38.353534 C 36.432288,38.2245 36.230325,38.105502 36.043651,37.958952 C 35.844084,37.822913 35.656408,37.671462 35.460901,37.529866 C 35.286303,37.398869 35.105342,37.276897 34.933955,37.14137 C 34.797736,37.017393 34.616377,36.968885 34.465629,36.871111 C 34.177494,36.402212 34.384834,36.778651 35.697101,36.058705 C 35.709721,36.051781 35.920583,36.239064 35.949076,36.263266 C 36.055214,36.410965 36.215364,36.497692 36.33613,36.629351 C 36.450567,36.733096 36.540819,36.833436 36.579746,36.983632 C 35.127978,37.92423 35.683339,37.788734 34.890601,37.515044 C 34.759379,37.420825 34.541941,37.447343 34.443657,37.314387 C 35.589439,36.529754 35.360922,36.310018 35.974158,36.704448 C 36.118033,36.777915 36.236067,36.891401 36.375635,36.974207 C 36.511898,37.095642 36.67934,37.165321 36.833701,37.256819 C 36.995036,37.347783 37.160958,37.430249 37.322688,37.520609 C 37.494848,37.608914 37.660751,37.710948 37.826225,37.811724 C 37.995237,37.89642 38.14929,37.916298 38.209853,38.113129 C 37.193434,38.786151 37.230614,39.096737 36.606511,38.699068 C 36.481835,38.630267 36.360142,38.557379 36.234283,38.489783 C 36.113651,38.403972 36.00963,38.29848 35.883801,38.219708 C 35.71061,38.093639 35.534784,37.971116 35.363634,37.842109 C 35.170151,37.716675 34.986282,37.577877 34.784945,37.464921 C 34.612231,37.377919 34.419296,37.307501 34.268781,37.183503 C 33.963139,36.625583 34.603687,36.804251 35.533815,36.389199 C 35.555554,36.379499 35.698174,36.487865 35.720702,36.500199 C 35.855634,36.597616 35.986306,36.700146 36.113429,36.807988 C 36.27915,36.969513 36.458926,37.11328 36.638014,37.259329 C 36.815636,37.401616 36.977182,37.568363 37.174198,37.684107 C 37.310512,37.771008 37.431237,37.879598 37.570623,37.961838 C 37.596055,37.978356 37.620061,37.997312 37.646919,38.011391 C 37.683749,38.030697 37.726812,38.036515 37.763104,38.056815 C 37.773971,38.062893 37.802453,38.073947 37.791919,38.080586 C 36.535979,38.872266 36.900609,39.151565 36.470863,38.784909 C 36.315592,38.675043 36.16444,38.55834 36.019645,38.434458 C 35.848422,38.295551 35.655052,38.191299 35.46535,38.081064 C 35.29017,37.965243 35.087074,37.916896 34.897337,37.835998 C 34.728887,37.773817 34.57375,37.683351 34.424761,37.58401 C 34.247352,37.461279 34.122619,37.28409 34.01344,37.101441 C 33.646186,36.557622 34.16603,36.741379 35.216451,36.22878 C 35.220882,36.226617 35.302068,36.294092 35.338923,36.324159 C 35.488191,36.440714 35.628281,36.568506 35.775922,36.686956 C 35.909277,36.783006 36.039229,36.875277 36.181913,36.957918 C 36.356685,37.049761 36.538789,37.124109 36.723617,37.193203 C 36.901218,37.242003 37.079579,37.292662 37.249628,37.364367 C 37.419492,37.435479 37.60201,37.454559 37.78386,37.466285 C 37.976188,37.475117 38.168796,37.473796 38.361272,37.47346 C 38.377216,37.515271 38.663785,37.348708 38.633751,37.365734 C 36.450594,38.603349 37.311527,38.247469 37.620863,37.891426 C 37.729473,37.7099 37.639715,37.510843 37.564869,37.333948 C 37.462321,37.130534 37.320995,36.951414 37.185174,36.769791 C 36.668258,36.242105 37.931336,35.434156 38.450912,35.903682 C 38.603162,36.032708 38.749317,36.168535 38.900717,36.29936 C 39.066324,36.465183 39.256972,36.597402 39.451864,36.725361 C 39.621027,36.806299 39.760086,36.944146 39.93918,37.004026 C 40.429157,37.178774 40.055824,37.035388 38.724724,37.75896 C 38.724187,37.759251 38.546098,37.5771 38.466697,37.498882 C 38.277638,37.32293 38.107122,37.128324 37.953465,36.920963 C 37.845748,36.774911 37.739028,36.636384 37.705788,36.456462 C 38.972687,35.709714 38.788866,35.457022 39.236257,36.081958 C 39.324617,36.218187 39.398723,36.363538 39.502982,36.488634 C 39.603377,36.616258 39.683928,36.758103 39.791869,36.879631 C 39.827681,36.919877 39.854569,36.967492 39.890361,37.007748 C 39.93527,37.058257 39.960356,37.060877 39.959742,37.061239 C 38.707237,37.800099 39.070278,38.0851 38.66855,37.752265 C 38.536944,37.600688 38.399961,37.454026 38.261318,37.308905 C 38.086412,37.151046 37.903262,37.003473 37.700221,36.883502 C 37.50409,36.759504 37.310169,36.630042 37.136347,36.475955 C 37.018238,36.367881 36.857916,36.280225 36.782998,36.134034 C 36.667,35.565499 36.722596,35.986502 38.065291,35.346499 C 38.067521,35.345436 38.330491,35.501665 38.355352,35.516402 C 38.51033,35.604893 38.648542,35.715716 38.791844,35.820838 C 38.902931,35.920971 39.004595,36.031245 39.130786,36.112995 C 39.257709,36.20312 39.368484,36.312172 39.489088,36.409778 C 39.627108,36.520411 39.779426,36.612415 39.925312,36.712472 C 40.449553,36.896085 39.990237,36.816239 38.732001,37.459272 C 38.730624,37.459976 38.563187,37.312292 38.55584,37.305805 C 38.402203,37.180347 38.265047,37.038508 38.128677,36.894514 C 37.952686,36.714487 37.786479,36.523856 37.595406,36.359535 C 37.467018,36.216631 37.291724,36.134051 37.146039,36.012812 C 37.017793,35.915369 36.908342,35.793434 36.793871,35.679831 C 36.424312,35.130914 37.679238,34.95919 38.020357,34.795373 C 38.024267,34.793495 38.112865,34.857339 38.147676,34.882033 C 38.312489,35.01115 38.468882,35.155961 38.589385,35.327819 C 38.675998,35.455373 38.777691,35.57027 38.873684,35.6903 C 38.991008,35.807003 39.084844,35.943354 39.208024,36.054679 C 39.339479,36.183706 39.475111,36.308375 39.603132,36.440897 C 39.714517,36.545168 39.830586,36.645866 39.933477,36.75874 C 40.024249,36.876108 40.09604,37.004336 40.168015,37.133695 C 40.25009,37.295256 40.308314,37.463367 40.344224,37.640682 C 40.374439,37.774581 40.356824,37.909625 40.340093,38.043705 L 39.050312,38.679388 C 39.067474,38.559783 39.097444,38.438327 39.074648,38.317708 C 39.046133,38.153745 38.994297,38.001104 38.917029,37.853366 C 38.850728,37.734405 38.786005,37.615498 38.700419,37.508884 C 38.595002,37.400056 38.483731,37.296932 38.37447,37.192021 C 38.246276,37.062952 38.115394,36.936743 37.985207,36.809719 C 37.861114,36.690275 37.752815,36.557053 37.635206,36.431451 C 37.535762,36.310147 37.437947,36.188289 37.349922,36.058235 C 37.240422,35.902982 37.097738,35.768549 36.936949,35.667362 C 36.48003,35.46732 35.659297,36.459248 38.07664,34.953112 C 38.101384,34.937695 38.019679,34.870584 38.008971,34.8977 C 38.004926,34.907942 38.019341,34.91713 38.024526,34.926845 C 38.132565,35.039036 38.242505,35.152098 38.36719,35.245836 C 38.518536,35.36153 38.682277,35.462223 38.811914,35.604137 C 39.000595,35.776875 39.174361,35.964926 39.354035,36.146898 C 39.489657,36.28576 39.627302,36.421712 39.77814,36.544213 C 39.793266,36.556898 39.979354,36.715361 39.973847,36.719626 C 38.855955,37.585423 39.172796,37.79698 38.70999,37.486933 C 38.562316,37.381767 38.404433,37.290453 38.265036,37.174043 C 38.151771,37.074556 38.038348,36.97552 37.915563,36.887646 C 37.793456,36.797439 37.686627,36.691151 37.573032,36.59079 C 37.43709,36.484381 37.296724,36.385034 37.146334,36.299652 C 37.080394,36.260646 37.010776,36.214075 36.935408,36.194776 C 36.920121,36.190861 36.874608,36.200232 36.888141,36.192115 C 38.112342,35.457858 38.427831,35.836743 38.054521,35.433223 C 38.111189,35.530281 38.258583,35.630116 38.355396,35.717127 C 38.526799,35.86288 38.714191,35.98852 38.905849,36.106081 C 39.112232,36.240289 39.306236,36.392116 39.484107,36.562631 C 39.623618,36.705977 39.761084,36.851273 39.900259,36.994921 C 40.284974,37.399174 40.004868,37.068379 38.731148,37.832173 C 38.727741,37.834216 38.616267,37.699744 38.601194,37.680539 C 38.586202,37.661436 38.571369,37.64221 38.556456,37.623046 C 38.452631,37.496385 38.366095,37.357335 38.265444,37.228203 C 38.164395,37.097264 38.083634,36.953271 37.993649,36.814776 C 37.58944,36.238125 37.447759,36.724209 39.051299,35.906137 C 38.882205,35.73791 39.168672,36.192567 39.186409,36.1904 C 39.335083,36.391894 39.501938,36.579573 39.68789,36.747561 C 39.764523,36.820047 39.842685,36.891156 39.918358,36.964643 C 39.936168,36.981939 39.990742,37.002729 39.970805,37.017524 C 38.828875,37.864957 39.188038,38.049763 38.736397,37.80278 C 38.567698,37.709131 38.410039,37.597973 38.244281,37.499431 C 38.045192,37.367615 37.857666,37.221833 37.682624,37.059101 C 37.529971,36.930456 37.386308,36.792115 37.230253,36.667939 C 36.785947,36.340521 37.167043,36.651658 38.375131,35.887907 C 38.381974,35.883581 38.330355,35.852198 38.341417,35.89819 C 38.346444,35.91909 38.357982,35.937987 38.368675,35.956636 C 38.384567,35.98435 38.403546,36.010177 38.420981,36.036947 C 38.562663,36.227874 38.70333,36.420944 38.814145,36.631858 C 38.909763,36.849229 39.001609,37.075104 38.938604,37.314974 C 38.623398,37.919295 37.859854,38.248722 37.197861,38.318668 C 37.002785,38.318197 36.807352,38.318399 36.612847,38.30149 C 36.421337,38.280336 36.232822,38.243669 36.05465,38.167383 C 35.880578,38.107583 35.705996,38.050205 35.530766,37.994225 C 35.341743,37.918473 35.152932,37.842407 34.975116,37.742159 C 34.825573,37.657324 34.693215,37.551632 34.554476,37.450681 C 34.413073,37.328383 34.272061,37.205811 34.120968,37.095327 C 34.100303,37.08159 34.080419,37.066597 34.058972,37.054117 C 34.043441,37.045079 33.99526,37.040754 34.010306,37.030929 C 34.407102,36.771827 34.826176,36.548172 35.225234,36.292566 C 35.235239,36.286158 35.20384,36.261136 35.19698,36.270837 C 35.172837,36.30498 35.311823,36.356873 35.25633,36.38136 C 35.354805,36.546187 35.469179,36.703515 35.63589,36.805306 C 35.78185,36.894588 35.930813,36.977814 36.092847,37.035049 C 36.291799,37.108827 36.486481,37.188934 36.668873,37.299242 C 36.866101,37.411613 37.060679,37.529104 37.236674,37.673467 C 37.383682,37.79287 37.535831,37.90628 37.691098,38.014637 C 38.143379,38.318643 37.773417,38.044515 36.5653,38.859196 C 36.559279,38.863256 36.473887,38.812252 36.436487,38.79012 C 36.410426,38.774699 36.385067,38.758121 36.359356,38.742122 C 36.224514,38.652904 36.098502,38.551604 35.964233,38.461504 C 35.773447,38.328567 35.605765,38.165643 35.424066,38.020841 C 35.243339,37.875544 35.067503,37.725466 34.893889,37.571796 C 34.769698,37.473083 34.646984,37.371574 34.512608,37.286859 C 34.479805,37.268039 34.418471,37.232066 34.382603,37.214178 C 34.365245,37.20552 34.313018,37.200337 34.32957,37.190223 C 34.690312,36.969791 35.90012,36.828019 35.494318,36.414739 C 35.641871,36.531117 35.827683,36.5902 35.98884,36.684215 C 36.189413,36.806603 36.381041,36.942321 36.574958,37.074851 C 36.747323,37.19995 36.920176,37.324786 37.097512,37.442675 C 37.215566,37.525846 37.321495,37.624187 37.443335,37.702 C 37.568873,37.774383 37.696505,37.84263 37.820545,37.917631 C 38.342933,38.245731 38.959048,37.487634 36.900002,38.740316 C 36.992729,38.814837 36.893467,38.731921 36.880853,38.724857 C 36.795701,38.677166 36.701466,38.647129 36.619526,38.593223 C 36.453334,38.496988 36.291745,38.392295 36.119731,38.306616 C 35.954353,38.22026 35.789294,38.133339 35.626537,38.042099 C 35.466666,37.955933 35.310903,37.864821 35.166415,37.75386 C 35.029605,37.665139 34.903063,37.561322 34.758997,37.484247 C 34.203516,37.117308 33.906385,37.677836 35.695112,36.574038 C 35.691015,36.568628 35.67604,36.557985 35.682823,36.557809 C 35.724623,36.556724 35.942839,36.656169 35.989269,36.674608 C 36.020468,36.686998 36.051743,36.699193 36.08298,36.711486 C 36.169637,36.745353 36.254533,36.785472 36.342726,36.815206 C 36.365524,36.822892 36.388177,36.83206 36.411986,36.835524 C 36.426331,36.837611 36.467768,36.824193 36.455296,36.831583 C 36.05138,37.070908 35.641185,37.299472 35.23413,37.533417 C 35.392172,37.72051 35.144371,37.390994 35.105368,37.379128 C 34.983997,37.256566 34.836048,37.1618 34.727081,37.025546 C 34.709528,37.010537 34.628103,36.939569 34.60418,36.923752 C 34.526953,36.872689 34.496183,36.886045 34.502559,36.881695 C 35.682995,36.076293 36.028598,36.448633 35.683444,36.087729 C 35.838421,36.18373 36.009145,36.255074 36.149234,36.375319 C 36.321813,36.506023 36.496881,36.633296 36.671148,36.761674 C 36.867291,36.904117 37.056346,37.055873 37.255463,37.194299 C 37.445778,37.336655 37.654487,37.449257 37.843796,37.592646 C 38.027646,37.739712 38.217483,37.87974 38.409172,38.016221 C 38.475031,38.053661 38.485545,38.063384 38.552665,38.088729 C 38.5698,38.095199 38.620776,38.095462 38.605145,38.10501 C 38.066705,38.433902 37.037554,38.45987 37.419543,38.873007 C 37.422853,38.876587 37.416664,38.863689 37.415225,38.859031 C 37.288384,38.740746 37.143539,38.642875 36.999097,38.547666 C 36.846631,38.443289 36.690401,38.343778 36.557116,38.21434 C 36.420036,38.103805 36.279632,37.997512 36.147686,37.880971 C 36.008615,37.747856 35.860888,37.624043 35.718261,37.494809 C 35.590898,37.394439 35.449061,37.304343 35.35517,37.169207 C 34.952514,36.541667 36.316895,36.049948 36.778709,36.412125 C 36.91934,36.489739 37.054495,36.577048 37.201644,36.642964 C 37.41019,36.777154 37.600442,36.938918 37.816437,37.062313 C 38.074149,37.213395 38.325541,37.376208 38.594259,37.507412 C 38.614291,37.51784 38.758936,37.59525 38.789913,37.604097 C 38.805111,37.608438 38.850771,37.593616 38.837277,37.601846 C 37.681142,38.30692 37.326148,37.952373 37.687497,38.385904 C 37.693425,38.393016 37.676087,38.371322 37.670382,38.364031 C 37.519916,38.246487 37.369332,38.134147 37.246787,37.984811 C 37.032913,37.756917 36.814819,37.533615 36.611951,37.295425 C 36.573573,37.259103 36.536105,37.221793 36.496816,37.186458 C 36.468996,37.161438 36.380091,37.135939 36.410715,37.114443 C 37.815356,36.128504 37.432761,36.061021 37.69423,36.462114 C 37.974678,36.790323 38.256231,37.117849 38.539459,37.443754 C 38.677475,37.60305 38.829725,37.766429 38.932302,37.952967 C 39.215869,38.468635 38.199433,39.057091 37.687008,38.87098 C 37.352549,38.748915 37.06527,38.524737 36.77156,38.329387 C 36.395601,38.049305 36.023286,37.76081 35.71968,37.400192 C 35.52735,37.170879 35.325435,36.947309 35.168379,36.691171 C 35.156586,36.669961 34.997218,36.392428 35.028359,36.372139 C 36.048179,35.70771 35.943634,35.422685 36.476793,35.753597 C 36.717817,35.929717 36.958176,36.109338 37.176993,36.312723 C 37.479453,36.601139 37.763112,36.909427 38.080739,37.181799 C 36.79442,38.003638 37.12375,38.324694 36.677054,37.619721 C 36.512176,37.329625 36.348107,37.038511 36.197789,36.740621 C 36.184932,36.712243 36.008239,36.317936 36.018246,36.310815 C 37.098156,35.542351 36.983299,35.243648 37.463597,35.729865 C 37.802081,36.091357 38.149396,36.444155 38.498375,36.795498 C 38.680911,36.979968 38.860437,37.169404 39.06951,37.324772 C 39.112967,37.357066 39.15963,37.384888 39.206129,37.412622 C 39.237072,37.431079 39.330472,37.441622 39.301639,37.463228 C 38.923966,37.746236 38.509009,37.975732 38.112694,38.231984 C 38.093346,38.031593 37.859492,37.833783 37.767793,37.66037 C 37.752971,37.638217 37.568744,37.359984 37.575114,37.355232 C 38.641175,36.559989 38.577163,36.154058 38.866687,36.672779 C 39.035371,36.942532 39.210188,37.208055 39.390351,37.470348 C 39.438271,37.539283 39.485078,37.609006 39.534145,37.67713 C 39.550291,37.699547 39.606394,37.726967 39.58409,37.743269 C 38.405393,38.60478 38.688923,38.865125 38.274066,38.432202 C 38.096598,38.238887 37.945527,38.023182 37.768865,37.828916 C 37.611868,37.628948 37.47701,37.414602 37.326212,37.210591 C 36.965236,36.7781 37.218006,37.12425 38.489029,36.363159 C 38.502442,36.355127 38.50679,36.388893 38.515684,36.401751 C 38.577595,36.491252 38.644525,36.576907 38.705078,36.667374 C 38.766703,36.760703 38.835072,36.850458 38.884138,36.951412 C 38.898417,36.980792 38.947952,37.022215 38.921854,37.041861 C 37.745701,37.927255 38.016766,38.209913 37.662642,37.807428 C 37.526621,37.626614 37.405904,37.434927 37.296314,37.237023 C 37.156918,37.015734 37.032449,36.78719 36.90461,36.559258 C 36.789974,36.353408 36.673197,36.148964 36.579206,35.932429 C 36.357148,35.426271 36.531252,35.879129 37.799185,35.122044 C 37.801992,35.120367 37.792364,35.126025 37.792573,35.129288 C 37.793582,35.145074 37.796965,35.160893 37.802613,35.175668 C 37.814293,35.206223 37.82921,35.235482 37.844267,35.264522 C 37.865194,35.304881 37.888424,35.344004 37.910502,35.383745 C 38.051007,35.645593 38.212528,35.893885 38.380221,36.139012 C 38.710402,36.636088 38.478953,36.217241 37.23762,37.021688 C 37.235057,37.023348 37.244398,37.017783 37.243678,37.014815 C 37.2387,36.994292 37.229721,36.974924 37.221552,36.955449 C 37.208343,36.923959 37.192143,36.89375 37.179576,36.861997 C 37.166899,36.829965 37.157125,36.796858 37.145899,36.764289 C 37.056085,36.543138 36.968515,36.32164 36.893187,36.09501 C 36.543387,35.197073 36.609599,35.603648 37.96913,34.806357 C 38.139653,35.037115 38.192967,35.343006 38.360523,35.577678 C 38.488993,35.83746 38.613876,36.097536 38.724913,36.365324 C 38.745007,36.413786 38.825822,36.478604 38.784541,36.510979 C 38.399071,36.81329 37.955412,37.032956 37.540848,37.293944 C 37.404179,37.132307 37.321022,36.938302 37.231899,36.748331 C 37.146721,36.547719 37.057745,36.348713 36.994428,36.139709 C 38.197938,35.370108 38.088274,34.948988 38.441135,35.731717 C 38.529979,35.962382 38.625252,36.189933 38.729835,36.413919 C 38.73992,36.43503 38.868425,36.707368 38.859285,36.713503 C 38.455745,36.984403 38.011831,37.190618 37.601573,37.451232 C 37.58703,37.46047 37.613107,37.490959 37.629987,37.494407 C 37.644501,37.497371 37.618423,37.467131 37.612641,37.453492 C 37.555072,37.280112 37.466259,37.126875 37.378141,36.967468 C 37.273897,36.777285 37.172148,36.585282 37.077504,36.390231 C 37.047441,36.324157 36.994838,36.216148 37.008306,36.206284 C 37.866292,35.577904 38.057612,34.983799 38.362888,35.570382 C 38.440718,35.710876 38.504058,35.859278 38.583021,35.999344 C 38.691414,36.186318 38.788436,36.380024 38.903909,36.563029 C 39.192959,37.043394 39.018324,36.70159 37.744695,37.459724 C 37.739156,37.463021 37.568567,37.172179 37.558659,37.162617 C 37.448534,36.973093 37.343596,36.780985 37.270298,36.57372 C 37.25827,36.53704 37.151846,36.246855 37.163694,36.239267 C 38.398269,35.448629 38.07792,35.201314 38.497813,35.561378 C 38.611681,35.699742 38.671518,35.872202 38.776233,36.017324 C 38.86392,36.201209 38.91448,36.399174 39.001867,36.583275 C 39.033547,36.66177 39.032918,36.667394 39.073977,36.740906 C 39.087609,36.765312 39.140061,36.79633 39.117377,36.812667 C 37.567605,37.928861 38.019625,38.049287 37.881328,37.549462 C 37.785673,37.367347 37.686672,37.187137 37.635891,36.985567 C 37.54445,36.750166 37.468049,36.509872 37.383255,36.271998 L 38.647041,35.575976 z"
     inkscape:export-filename="/home/pierre/workspace/iramuteq/images/iraicone16x16.png"
     inkscape:export-xdpi="29.879032"
     inkscape:export-ydpi="29.879032" />
  <g
     inkscape:groupmode="layer"
     id="layer1"
     inkscape:label="t" />
  <g
     inkscape:groupmode="layer"
     id="layer2"
     inkscape:label="y" />
  <path
     style="fill:none;stroke:#000000;stroke-width:0.49725074;stroke-linecap:butt;stroke-linejoin:miter;stroke-miterlimit:4;stroke-opacity:1;stroke-dasharray:1.49175227, 0.49725076;stroke-dashoffset:0"
     d="M 1.0235826,4.5269449 C 23.585409,23.292968 23.585409,23.292968 23.585409,23.292968 l 0.07117,0.163895"
     id="path3775-2-4"
     inkscape:connector-curvature="0"
     inkscape:export-filename="/home/pierre/workspace/iramuteq/images/iraicone16x16.png"
     inkscape:export-xdpi="29.879032"
     inkscape:export-ydpi="29.879032" />
  <path
     sodipodi:type="arc"
     style="opacity:1;fill:#ff00d7;fill-opacity:0.6875;filter:url(#filter3456)"
     id="path3202"
     sodipodi:cx="-12.728745"
     sodipodi:cy="19.190283"
     sodipodi:rx="8.7449389"
     sodipodi:ry="10.736842"
     d="M -3.9838066,19.190283 A 8.7449389,10.736842 0 1 1 -21.473684,19.190283 A 8.7449389,10.736842 0 1 1 -3.9838066,19.190283 z"
     transform="translate(24.388664,-7.7732794)"
     inkscape:export-filename="/home/pierre/workspace/iramuteq/images/iraicone248x248.png"
     inkscape:export-xdpi="463.125"
     inkscape:export-ydpi="463.125" />
  <text
     xml:space="preserve"
     style="font-size:56px;font-style:normal;font-variant:normal;font-weight:300;font-stretch:normal;text-align:start;line-height:125%;writing-mode:lr-tb;text-anchor:start;fill:#0000ff;fill-opacity:1;stroke:none;stroke-width:1px;stroke-linecap:butt;stroke-linejoin:miter;stroke-opacity:1;font-family:Purisa;-inkscape-font-specification:Purisa Light"
     x="8.3562746"
     y="43.336033"
     id="text2383"
     sodipodi:linespacing="125%"
     inkscape:export-filename="/home/pierre/workspace/iramuteq/images/iraicone16x16.png"
     inkscape:export-xdpi="29.879032"
     inkscape:export-ydpi="29.879032"><tspan
       sodipodi:role="line"
       id="tspan2385"
       x="8.3562746"
       y="43.336033">R</tspan></text>
  <text
     xml:space="preserve"
     style="font-size:48px;font-style:normal;font-variant:normal;font-weight:300;font-stretch:normal;text-align:start;line-height:125%;writing-mode:lr-tb;text-anchor:start;fill:#ff0000;fill-opacity:1;stroke:none;stroke-width:1px;stroke-linecap:butt;stroke-linejoin:miter;stroke-opacity:1;font-family:Purisa;-inkscape-font-specification:Purisa Light"
     x="21.473684"
     y="40.129555"
     id="text2387"
     sodipodi:linespacing="125%"
     inkscape:export-filename="/home/pierre/workspace/iramuteq/images/iraicone16x16.png"
     inkscape:export-xdpi="29.879032"
     inkscape:export-ydpi="29.879032"><tspan
       sodipodi:role="line"
       id="tspan2389"
       x="21.473684"
       y="40.129555">a</tspan></text>
  <text
     xml:space="preserve"
     style="font-size:40px;font-style:normal;font-variant:normal;font-weight:300;font-stretch:normal;text-align:start;line-height:100%;writing-mode:lr-tb;text-anchor:start;fill:#ff0000;fill-opacity:1;stroke:none;stroke-width:1px;stroke-linecap:butt;stroke-linejoin:miter;stroke-opacity:1;font-family:Purisa;-inkscape-font-specification:Purisa Light"
     x="-1.1659923"
     y="43.044533"
     id="text2379"
     sodipodi:linespacing="100%"
     inkscape:export-filename="/home/pierre/workspace/iramuteq/images/iraicone16x16.png"
     inkscape:export-xdpi="29.879032"
     inkscape:export-ydpi="29.879032"><tspan
       sodipodi:role="line"
       id="tspan2381"
       x="-1.1659923"
       y="43.044533">I</tspan></text>
</svg>
